<svg xmlns="http://www.w3.org/2000/svg" viewBox="0 0 100 100">
  <defs><clipPath id="c"><circle cx="50" cy="50" r="50"/></clipPath></defs>
  <circle cx="50" cy="50" r="50" fill="#B8C0C8"/>
  <g clip-path="url(#c)">
    <circle cx="50" cy="46" r="24" fill="#E8D8C0"/>
    <path d="M26,32 Q26,16 50,14 Q74,16 74,32 L72,28 Q50,18 28,28 Z" fill="#1A1A1A"/>
    <path d="M28,16 L50,6 L70,16 L66,22 L34,22 Z" fill="#2A2A2A"/>
    <rect x="42" y="2" width="16" height="5" rx="2.5" fill="#2A2A2A"/>
    <path d="M48,2 L50,0 L52,2" fill="#2A2A2A"/>
    <path d="M44,56 L48,58 M52,58 L56,56" stroke="#2A2A2A" stroke-width="1" fill="none"/>
    <ellipse cx="42" cy="44" rx="3.5" ry="4" fill="#fff"/><ellipse cx="58" cy="44" rx="3.5" ry="4" fill="#fff"/>
    <ellipse cx="42" cy="44" rx="2" ry="2.5" fill="#333"/><ellipse cx="58" cy="44" rx="2" ry="2.5" fill="#333"/>
    <ellipse cx="38" cy="50" rx="3" ry="2" fill="rgba(0,0,0,0.04)"/><ellipse cx="62" cy="50" rx="3" ry="2" fill="rgba(0,0,0,0.04)"/>
    <path d="M42,56 Q50,60 58,56" stroke="#8B6050" stroke-width="1.2" fill="none" stroke-linecap="round"/>
    <path d="M58,46 L66,40 L70,44 L62,50 Z" fill="#3A4A5A" opacity="0.6"/>
    <path d="M30,74 Q50,84 70,74 L68,92 L32,92 Z" fill="#3A5A7A"/>
  </g>
  <circle cx="50" cy="50" r="48" fill="none" stroke="rgba(0,0,0,0.05)" stroke-width="1"/>
</svg>
