<svg xmlns="http://www.w3.org/2000/svg" viewBox="0 0 100 100">
  <defs><clipPath id="c"><circle cx="50" cy="50" r="50"/></clipPath></defs>
  <circle cx="50" cy="50" r="50" fill="#D5C8B8"/>
  <g clip-path="url(#c)">
    <circle cx="50" cy="46" r="24" fill="#F5E6D0"/>
    <path d="M28,30 Q28,14 50,12 Q72,14 72,30 L70,24 Q50,16 30,24 Z" fill="#333"/>
    <path d="M26,24 L32,10 L68,10 L74,24 Z" fill="#1a1a2e"/>
<rect x="36" y="6" width="28" height="6" rx="4" fill="#1a1a2e"/>
    <path d="M36,48 L30,42 M30,42 L28,46" stroke="#8B4513" stroke-width="1.5" fill="none" stroke-linecap="round"/>
<path d="M38,50 L34,54" stroke="#8B4513" stroke-width="1" fill="none"/>
    <ellipse cx="42" cy="44" rx="3" ry="3.5" fill="#fff"/><ellipse cx="58" cy="44" rx="3" ry="3.5" fill="#fff"/>
<ellipse cx="42" cy="44" rx="1.8" ry="2.5" fill="#333"/><ellipse cx="58" cy="44" rx="1.8" ry="2.5" fill="#333"/>
    <ellipse cx="38" cy="50" rx="3" ry="2" fill="rgba(0,0,0,0.04)"/>
    <ellipse cx="62" cy="50" rx="3" ry="2" fill="rgba(0,0,0,0.04)"/>
    <path d="M43,55 Q50,59 57,55" stroke="#C47A7A" stroke-width="1" fill="none" stroke-linecap="round"/>
    
    <path d="M33,76 Q50,84 67,76 L65,88 L35,88 Z" fill="#B8655A" opacity="0.4"/>
  </g>
  <circle cx="50" cy="50" r="48" fill="none" stroke="rgba(0,0,0,0.05)" stroke-width="1"/>
</svg>